<svg width="217" height="374" viewBox="0 0 217 374" fill="none" xmlns="http://www.w3.org/2000/svg">
<g clip-path="url(#clip0_24_57)">
<path d="M216.683 22.1964V352.259C216.683 364.112 207.691 373.716 196.587 373.716H21.9386C11.7098 373.716 3.28229 365.572 2.01636 355.025C1.90061 354.121 1.84274 353.194 1.84274 352.259V22.1964C1.84274 10.3439 10.8345 0.732059 21.9386 0.732059H196.587C207.691 0.732059 216.683 10.3439 216.683 22.1964Z" fill="#F0B11E"/>
<path d="M216.683 67.1881V272.096C192.927 310.961 139.251 270.08 97.5331 299.788C62.8464 324.49 26.25 316.184 1.84274 284.142V104.824C26.25 72.7821 35.3069 25.0398 91.3553 50.4215C147.404 75.8032 192.927 28.3236 216.683 67.1881Z" fill="#EA8524"/>
<path d="M69.639 233.803L91.9267 257.269C95.7607 246.011 99.4066 234.769 101.483 223.156C91.225 228.086 80.6128 231.88 69.639 233.796V233.803Z" fill="#FFD8A5"/>
<path d="M134.202 203.639C123.713 210.887 112.811 217.717 101.483 223.164C99.4066 234.777 95.7607 246.019 91.9267 257.277L95.3628 260.893L114.229 243.616L145.841 229.245L163.832 216.117L134.202 203.639Z" fill="#243258"/>
<path d="M67.288 204.273C76.0628 184.863 69.0893 164.867 57.6597 148.819C56.6325 148.41 55.7789 148.162 55.2074 148.139C52.9359 148.039 51.9377 148.371 51.9377 148.371C51.9377 148.371 48.8198 149.615 49.6951 151.485C50.5704 153.355 60.669 172.88 60.669 172.88L62.6873 182.399L61.3201 193.71L60.7558 206.876L52.5091 221.835C59.2729 218.59 64.1992 211.435 67.2953 204.28L67.288 204.273Z" fill="#FFE6CE"/>
<path d="M81.1121 181.34L75.9109 168.035C74.1386 163.492 71.4548 159.142 68.1055 155.649C65.3928 152.814 60.7631 150.063 57.6597 148.819C69.0893 164.867 76.0628 184.856 67.2881 204.273C64.1992 211.427 59.2656 218.582 52.5019 221.827L48.3931 229.283L69.2412 233.479L69.5884 233.842C92.6791 229.801 114.157 217.493 134.151 203.678L81.1121 181.34Z" fill="#FFD8A5"/>
<path d="M148.518 198.563L161.553 211.111C161.9 211.968 110.648 234.962 109.852 235.357C109.852 235.357 107.595 236.307 105.57 237.172C103.544 238.038 100.911 237.744 99.8623 235.666" fill="#243258"/>
<path d="M99.9637 235.727C98.3071 231.671 92.6574 217.74 86.5448 202.31C72.605 167.085 52.7334 116.63 52.7334 116.63C52.473 115.966 52.7117 115.355 53.276 114.173C53.8402 112.991 55.5619 109.815 55.5619 109.815C56.3793 109.004 57.6959 109.298 58.1371 110.395L148.511 198.57" fill="#DEDFE0"/>
<path d="M57.6813 108.208L109.476 89.7651C111.675 88.9847 114.077 90.1437 114.967 92.4308L159.209 205.555C160.15 207.966 159.086 210.74 156.829 211.752L106.952 234.028C104.492 235.125 101.656 233.889 100.629 231.254L54.9903 114.513C53.9992 111.971 55.2362 109.066 57.6813 108.193V108.208Z" fill="#243258"/>
<path d="M128.125 136.588L155.006 204.419C155.6 205.911 155.26 207.78 153.871 208.422L107.415 229.322C106.011 229.963 104.384 229.26 103.798 227.754L66.6079 132.709" fill="#FFF333"/>
<path d="M66.6007 132.709L59.7502 115.193C59.1353 113.625 59.8949 111.824 61.3995 111.284L108.543 94.1383C109.91 93.6438 111.4 94.3547 111.965 95.7764L128.132 136.588" fill="#FFF333"/>
<path d="M80.9311 107.343L90.8778 103.418C91.7459 103.07 92.7224 103.511 93.0986 104.415C93.5182 105.411 93.0624 106.578 92.1003 106.957L82.1609 110.905C81.3001 111.245 80.3452 110.828 79.9473 109.947V109.924C79.4916 108.919 79.9473 107.729 80.9239 107.343H80.9311Z" fill="#243258"/>
<path d="M119.155 151.245C117.079 145.775 110.851 143.302 105.244 145.729C99.638 148.155 96.7734 154.552 98.8495 160.023C99.6453 162.124 101.063 163.778 102.814 164.89L104.977 172.455L109.245 166.42C110.417 166.32 111.596 166.042 112.753 165.539C118.359 163.113 121.224 156.716 119.148 151.245H119.155Z" fill="#243258"/>
<path d="M49.413 238.2C43.7995 236.724 37.2528 236.724 34.4388 242.627C31.8635 246.691 51.3662 260.182 55.0266 252.965C58.7665 245.587 54.0934 241.151 49.413 238.2Z" fill="#5C78BB"/>
<path d="M81.2857 244.064C77.0394 239.676 72.6628 235.642 69.2412 233.471C59.4609 227.267 54.9325 227.46 52.3645 227.112C49.7964 226.765 45.2897 228.913 45.2897 228.913C45.2897 228.913 41.4195 234.066 39.2855 235.132C37.1515 236.199 35.0682 235.109 33.1656 237.844C31.2631 240.58 29.7223 243.547 29.0351 244.775C28.3478 246.004 1.88615 272.444 1.88615 272.444C1.88615 272.444 -0.891679 354.933 3.13038 356.764C7.4201 353.982 70.905 273.51 70.905 268.395C70.1816 259.896 52.8202 256.033 60.7775 250.624C66.5647 245.988 74.522 257.578 80.3091 252.942C83.0869 251.25 82.812 247.688 81.2857 244.057V244.064ZM52.8202 247.541C49.9917 251.32 44.6169 250.895 43.3221 250.671C42.0272 250.446 34.9162 244.257 36.9056 242.133C39.0757 239.042 44.1395 239.042 48.4798 239.815C52.0968 241.36 55.7138 243.678 52.8202 247.541Z" fill="#5C78BB"/>
<path d="M96.7084 262.709C96.7735 264.3 94.9072 267.36 94.9072 267.36L28.4202 373.716H21.9386C11.7098 373.716 3.28229 365.572 2.01636 355.025C18.488 336.644 70.905 272.853 70.905 268.403C70.1816 259.904 52.8202 256.04 60.7775 250.632C66.5647 245.996 74.522 257.586 80.3091 252.95C83.0869 251.258 82.812 247.696 81.2857 244.064C89.1924 252.239 96.665 261.673 96.7084 262.709Z" fill="#374875"/>
<path d="M57.2257 161.653C57.9129 160.988 58.072 160.123 59.4031 159.729C59.4031 159.729 56.5674 153.687 53.681 150.843C53.681 150.843 52.2921 150.805 51.6555 151.013C51.019 151.222 49.8832 152.227 49.8832 152.227C49.8832 152.227 51.1853 156.677 51.9955 158.199C52.8057 159.721 56.1478 163.917 56.1478 163.917C56.1478 163.917 56.5384 162.317 57.2184 161.653H57.2257Z" fill="#FFFEEE"/>
<path d="M139.663 153.702L141.725 159.119L157.112 150.89C157.112 150.89 153.068 139.045 151.961 137.956C150.854 136.866 145.494 132.663 143.497 133.389C141.501 134.116 124.718 143.109 122.787 144.778C120.855 146.447 119.416 148.842 119.864 151.122C120.313 153.401 122.504 158.74 129.529 157.542C132.451 157.048 144.163 150.202 144.163 150.202L146.507 140.513" fill="#FFD8A5"/>
<path d="M152.865 189.322L156.678 198.879L166.082 195.658L165.293 173.065L160.642 169.735C159.897 169.82 134.911 174.672 134.911 174.672L131.359 178.675L132.567 188.379L136.886 191.501L159.853 188.387" fill="#FFD8A5"/>
<path d="M147.143 139.37C148.424 138.095 149.48 142.746 150.218 144.021C150.955 145.296 155.665 147.722 155.665 147.722L151.476 150.14L139.931 154.761C139.931 154.761 129.948 158.029 128.299 157.689C127.38 153.138 138.021 149.167 140.582 148.093C143.143 147.019 145.856 140.652 147.136 139.377L147.143 139.37Z" fill="#243258"/>
<path d="M163.781 216.148L166.863 195.789L162.66 191.841C161.908 191.825 139.924 192.304 136.546 193.162C133.167 194.019 133.449 194.746 132.538 196.639C131.626 198.532 131.453 204.141 133.435 205.702C135.417 207.263 139.548 207.726 139.548 207.726L159.615 210.222L156.569 215.383" fill="#FFD8A5"/>
<path d="M146.398 169.457L149.653 176.187L165.828 172.547L158.24 149.097C158.24 149.097 155.455 145.852 152.822 146.285C150.189 146.718 130.802 157.187 129.066 158.67C127.33 160.154 126.772 161.553 126.83 163.994C126.888 166.436 130.599 171.079 130.599 171.079L135.439 175.313L156.019 164.326" fill="#FFD8A5"/>
<path d="M134.773 178.203C135.706 177.013 142.26 175.568 142.26 175.568C142.26 175.568 144.937 177.655 145.675 180.853C146.413 184.052 145.183 186.37 145.183 186.37C145.183 186.37 141.182 187.738 138.672 187.467C136.162 187.197 134.831 185.822 134.252 182.546C133.674 179.262 133.84 179.401 134.773 178.211V178.203Z" fill="#FFFEEE"/>
<path d="M133.261 194.104C134.433 193.193 141.479 193.108 141.479 193.108C141.479 193.108 143.432 194.313 143.425 197.605C143.418 200.896 141.53 202.573 141.53 202.573C141.53 202.573 137.341 202.866 134.969 201.947C132.596 201.035 131.352 201.398 131.54 198.06C131.728 194.723 132.089 195.016 133.261 194.104Z" fill="#FFFEEE"/>
<path d="M95.6377 224.748C95.6377 224.748 91.6301 205.084 84.8519 185.945C78.0737 166.807 67.5773 155.255 67.5773 155.255C67.5773 155.255 77.1695 180.583 80.7865 188.889C84.4034 197.195 92.5922 223.705 92.5922 223.705L95.6305 224.748H95.6377Z" fill="#FFD8A5"/>
<path d="M129.268 160.301C129.702 159.142 134.469 156.492 134.469 156.492C134.469 156.492 137.066 157.535 138.434 159.907C139.801 162.279 138.991 163.979 138.991 163.979C138.991 163.979 136.3 165.663 134.267 166.026C132.234 166.389 130.483 166.915 129.232 164.442C127.981 161.97 128.834 161.467 129.275 160.309L129.268 160.301Z" fill="#FFFEEE"/>
<path d="M145.754 151.052C144.749 152.991 150.673 153.262 151.99 154.089C153.307 154.915 152.967 158.91 153.581 160.973L150.21 163.299L161.423 158.91L158.233 149.097C158.233 149.097 157.155 147.846 155.39 147.745C153.625 147.645 152.525 147.513 151.447 147.83C150.37 148.147 146.753 149.12 145.747 151.06L145.754 151.052Z" fill="#243258"/>
<path d="M174.618 157.72L169.055 162.835L157.372 173.274L163.883 199.559L180.427 203.222L179.819 197.798L177.981 193.425L172.484 191.385L170.27 182.376L176.412 161.429L174.618 157.72Z" fill="#243258"/>
<path d="M154.478 173.969L149.559 175.012L150.153 195.356L152.431 196.477" fill="#FFD8A5"/>
<path d="M152.431 196.477L168.925 204.605L169.605 197.952L166.689 194.112L160.656 190.063L162.204 176.758L164.96 171.744L154.478 173.969" fill="#243258"/>
<path d="M164.96 171.744L174.936 153.61L173.75 148.657L165.807 153.115L149.183 162.117L149.559 175.012" fill="#FFE6CE"/>
<path d="M153.372 160.231C153.82 159.752 154.811 159.281 155.506 158.446L141.797 162.464L114.157 181.193C114.157 181.193 114.554 182.182 115.307 183.357C116.797 182.762 118.193 181.935 119.372 181.093C130.223 172.594 141.797 168.73 153.372 160.231Z" fill="#FFE6CE"/>
<path d="M216.56 151.979L173.959 148.665L172.013 153.61L155.506 158.446C154.811 159.281 153.813 159.76 153.372 160.231C141.797 168.73 130.223 172.594 119.372 181.093C118.193 181.935 116.797 182.762 115.307 183.357C116.182 184.724 117.556 186.332 119.379 186.927C122.779 188.031 128.878 186.502 128.878 186.502L144.235 180.421L162.993 176.519L167.839 175.723L169.322 175.476L177.121 181.982L178.582 190.828L177.851 198.377C177.851 198.377 168.216 201.267 165.503 200.471C162.797 199.675 152.489 194.545 148.966 195.658C145.443 196.778 143.931 199.953 143.931 199.953L159.152 213.622L178.336 213.993L197.477 216.048L216.69 216.535L216.878 181.788L216.553 151.987L216.56 151.979Z" fill="#FFD8A5"/>
<path d="M169.576 175.599L168.093 175.847L163.246 176.642L144.488 180.544L129.131 186.625C129.131 186.625 123.033 188.155 119.633 187.05C118.468 186.672 117.484 185.876 116.703 185.003C116.703 185.003 121.759 185.59 129.189 181.557C136.618 177.523 160.62 171.798 165.25 173.49L169.583 175.607L169.576 175.599Z" fill="#243258"/>
<path d="M114.164 181.24C114.598 181.24 115.538 182.862 118.381 181.557L124.74 177.392C124.74 177.392 125.376 175.244 124.964 173.753" fill="#FFFEEE"/>
<path d="M118.895 149.059C118.895 149.059 121.145 146.555 123.199 145.157C125.253 143.758 127.04 143.156 127.04 143.156C127.04 143.156 129.196 142.259 129.565 143.356C129.934 144.454 130.498 148.054 130.404 148.858C130.31 149.661 123.264 154.398 121.043 154.761C119.097 153.633 117.795 152.242 118.888 149.059H118.895Z" fill="#FFFEEE"/>
<path d="M144.698 201.591L148.351 204.373C148.351 204.373 148.402 204.412 148.431 204.427L149.039 204.829C149.943 205.424 150.948 205.37 151.078 204.242C151.078 204.242 151.158 202.727 150.84 202.387C149.95 201.452 148.069 199.598 146.478 198.972C146.268 198.887 146.051 198.825 145.841 198.787C144.293 198.462 143.418 200.618 144.698 201.599V201.591Z" fill="#FFFEEE"/>
<path d="M142.608 177.067C142.608 177.067 142.788 170.763 143.606 170.515C144.423 170.268 145.118 172.207 145.537 173.745C145.957 175.283 149.111 175.947 149.111 175.947" fill="#243258"/>
<path d="M82.6529 286.808C78.8913 304.95 67.8957 321.245 52.9721 330.795L82.6529 286.808Z" fill="#374875"/>
<path d="M22.8645 291.258C29.8814 295.33 35.0826 304.185 43.0689 304.053C46.2446 303.999 34.2869 291.134 35.4081 287.959C36.3124 285.394 52.8419 290.107 51.8074 287.596C49.1888 281.26 37.3685 274.94 38.62 271.648C39.8715 268.357 61.0741 275.62 62.4485 273.51C63.823 271.401 48.3207 263.991 41.2604 259.232C39.9293 258.335 38.4102 256.999 38.743 255.361C39.1698 253.236 41.9693 253.189 43.9514 253.653C49.9194 255.044 55.8874 256.442 61.8554 257.833C65.3566 258.652 68.9952 259.541 71.7731 261.959C75.3756 265.104 76.873 270.412 76.5258 275.365C76.1785 280.317 74.2037 284.984 71.8816 289.288C64.5392 302.894 53.587 313.796 42.8084 324.475C33.3537 333.831 23.9062 343.196 14.4515 352.553C12.8383 354.152 11.0732 355.821 8.88857 356.099C6.09628 356.455 3.40526 359.723 2.12485 357.042C0.84445 354.361 0.685304 345.831 0.540625 342.833C-0.00915271 331.143 -0.0453224 319.429 0.439351 307.739C0.663602 302.323 0.829982 296.814 1.4304 291.42C1.8355 287.789 2.65293 285.502 6.40734 285.386C12.0787 285.216 18.0178 288.438 22.8573 291.25L22.8645 291.258Z" fill="#374875"/>
<path d="M45.2897 228.92L49.876 224.246C49.876 224.246 60.3941 222.299 74.4207 231.122C90.5234 241.26 100.304 256.628 100.304 256.628L96.5493 264.184C96.5493 264.184 82.5444 245.061 70.7097 237.968C58.875 230.875 45.2897 228.92 45.2897 228.92Z" fill="#374875"/>
<mask id="mask0_24_57" style="mask-type:luminance" maskUnits="userSpaceOnUse" x="45" y="224" width="56" height="41">
<path d="M45.2897 228.92L49.876 224.246C49.876 224.246 60.3941 222.299 74.4207 231.122C90.5234 241.26 100.304 256.628 100.304 256.628L96.5493 264.184C96.5493 264.184 82.5444 245.061 70.7097 237.968C58.875 230.875 45.2897 228.92 45.2897 228.92Z" fill="white"/>
</mask>
<g mask="url(#mask0_24_57)">
<path d="M82.3925 233.881L73.6611 245.733" stroke="#162144" stroke-width="3" stroke-miterlimit="10"/>
<path d="M86.5954 236.832L77.8568 248.685" stroke="#162144" stroke-width="3" stroke-miterlimit="10"/>
<path d="M90.7983 242.063L82.0597 253.916" stroke="#162144" stroke-width="3" stroke-miterlimit="10"/>
<path d="M94.994 245.015L86.2554 256.867" stroke="#162144" stroke-width="3" stroke-miterlimit="10"/>
<path d="M99.1969 250.616L90.4583 262.469" stroke="#162144" stroke-width="3" stroke-miterlimit="10"/>
<path d="M56.2853 219.563L47.5467 231.416" stroke="#162144" stroke-width="3" stroke-miterlimit="10"/>
<path d="M61.9639 221.402L53.2253 233.255" stroke="#162144" stroke-width="3" stroke-miterlimit="10"/>
<path d="M68.9446 222.353L60.2133 234.205" stroke="#162144" stroke-width="3" stroke-miterlimit="10"/>
<path d="M73.1475 225.304L64.409 237.157" stroke="#162144" stroke-width="3" stroke-miterlimit="10"/>
<path d="M77.3504 230.906L68.6119 242.759" stroke="#162144" stroke-width="3" stroke-miterlimit="10"/>
<path d="M104.572 253.568L95.8331 265.421" stroke="#162144" stroke-width="3" stroke-miterlimit="10"/>
</g>
</g>
<defs>
<clipPath id="clip0_24_57">
<rect width="216.793" height="372.984" fill="white" transform="translate(0.0993652 0.732059)"/>
</clipPath>
</defs>
</svg>
